<svg width="36" height="71" viewBox="0 0 36 71" fill="none" xmlns="http://www.w3.org/2000/svg">
<path d="M35.856 16.472H35.712V5.609C35.712 2.556 33.12 0 29.952 0H6.048C2.88 0 0.36 2.556 0.36 5.609V65.391C0.36 68.515 2.952 71 6.048 71H30.024C33.192 71 35.712 68.444 35.712 65.391V24.495H35.856C35.928 24.495 36 24.424 36 24.353V16.543C36 16.472 35.928 16.472 35.856 16.472ZM21.888 2.485C22.104 2.485 22.32 2.627 22.32 2.911C22.32 3.124 22.176 3.337 21.888 3.337C21.672 3.337 21.456 3.195 21.456 2.911C21.456 2.627 21.672 2.485 21.888 2.485ZM15.984 2.556H19.944C20.088 2.556 20.232 2.698 20.232 2.84C20.232 2.982 20.088 3.124 19.944 3.124H15.984C15.84 3.124 15.696 2.982 15.696 2.84C15.768 2.698 15.84 2.556 15.984 2.556ZM33.552 65.32C33.552 67.237 31.968 68.799 30.024 68.799H5.976C4.032 68.799 2.448 67.237 2.448 65.32V5.68C2.448 3.763 4.032 2.201 5.976 2.201H8.784C9 2.201 9.216 2.414 9.216 2.627V2.698C9.288 3.834 10.224 4.757 11.376 4.757H24.624C25.776 4.757 26.712 3.834 26.784 2.698V2.556C26.784 2.343 27 2.13 27.216 2.13H30.024C31.968 2.13 33.552 3.692 33.552 5.609V65.32ZM0 9.798V12.141C0 12.212 0.072 12.283 0.144 12.283H0.288V9.656H0.144C0.072 9.656 0 9.727 0 9.798ZM0 14.768V19.596C0 19.667 0.072 19.738 0.144 19.738H0.288V14.626H0.144C0.072 14.626 0 14.697 0 14.768ZM0 21.3V26.128C0 26.199 0.072 26.27 0.144 26.27H0.288V21.158H0.144C0.072 21.158 0 21.229 0 21.3Z" fill="black"/>
<path d="M30.024 2.83984H27.432C27.288 4.25984 26.064 5.39584 24.552 5.39584H11.376C9.93597 5.39584 8.63997 4.25984 8.49597 2.83984H5.97597C4.39197 2.83984 3.16797 4.11784 3.16797 5.60884V65.2488C3.16797 66.8108 4.46397 68.0178 5.97597 68.0178H30.024C31.608 68.0178 32.832 66.7398 32.832 65.2488V5.60884C32.832 4.11784 31.608 2.83984 30.024 2.83984Z" fill="black"/>
<path d="M10.4832 17.9073H10.9839V12.0927H10.4756L9 13.1686V13.7287L10.468 12.681H10.4832V17.9073Z" fill="white"/>
<path d="M12.5447 13.7246H13.0454C13.053 13.0114 13.5954 12.4835 14.32 12.4835C15.0103 12.4835 15.4845 12.9913 15.4845 13.632C15.4845 14.1437 15.291 14.4903 14.5058 15.3606L12.5712 17.5205V17.9073H16.1408V17.4157H13.292V17.3996L14.7562 15.7757C15.7311 14.7079 16.0004 14.2324 16.0004 13.6038C16.0004 12.7173 15.3024 12 14.32 12C13.3071 12 12.5522 12.7293 12.5447 13.7246Z" fill="white"/>
<path d="M17.6332 13.6723C17.8305 13.6723 17.986 13.503 17.986 13.2935C17.986 13.0839 17.8305 12.9187 17.6332 12.9187C17.436 12.9187 17.2766 13.0839 17.2766 13.2935C17.2766 13.503 17.436 13.6723 17.6332 13.6723ZM17.6332 17.0813C17.8305 17.0813 17.986 16.912 17.986 16.7025C17.986 16.4929 17.8305 16.3277 17.6332 16.3277C17.436 16.3277 17.2766 16.4929 17.2766 16.7025C17.2766 16.912 17.436 17.0813 17.6332 17.0813Z" fill="white"/>
<path d="M21.1513 18C22.3955 18 23.1315 16.8314 23.1315 14.994C23.1315 13.1686 22.3918 12 21.1513 12C19.9147 12 19.1674 13.1726 19.1674 14.998C19.1674 16.8355 19.9071 18 21.1513 18ZM21.1513 17.5165C20.2257 17.5165 19.6909 16.5373 19.6909 14.994C19.6909 13.4788 20.2371 12.4876 21.1513 12.4876C22.0693 12.4876 22.6118 13.4708 22.6118 14.998C22.6118 16.5373 22.0769 17.5165 21.1513 17.5165Z" fill="white"/>
<path d="M26.0199 18C27.2641 18 28 16.8314 28 14.994C28 13.1686 27.2603 12 26.0199 12C24.7832 12 24.0359 13.1726 24.0359 14.998C24.0359 16.8355 24.7756 18 26.0199 18ZM26.0199 17.5165C25.0943 17.5165 24.5594 16.5373 24.5594 14.994C24.5594 13.4788 25.1057 12.4876 26.0199 12.4876C26.9379 12.4876 27.4803 13.4708 27.4803 14.998C27.4803 16.5373 26.9454 17.5165 26.0199 17.5165Z" fill="white"/>
</svg>
