<svg width="36" height="71" viewBox="0 0 36 71" fill="none" xmlns="http://www.w3.org/2000/svg">
<path d="M35.856 16.472H35.712V5.609C35.712 2.556 33.12 0 29.952 0H6.048C2.88 0 0.36 2.556 0.36 5.609V65.391C0.36 68.515 2.952 71 6.048 71H30.024C33.192 71 35.712 68.444 35.712 65.391V24.495H35.856C35.928 24.495 36 24.424 36 24.353V16.543C36 16.472 35.928 16.472 35.856 16.472ZM21.888 2.485C22.104 2.485 22.32 2.627 22.32 2.911C22.32 3.124 22.176 3.337 21.888 3.337C21.672 3.337 21.456 3.195 21.456 2.911C21.456 2.627 21.672 2.485 21.888 2.485ZM15.984 2.556H19.944C20.088 2.556 20.232 2.698 20.232 2.84C20.232 2.982 20.088 3.124 19.944 3.124H15.984C15.84 3.124 15.696 2.982 15.696 2.84C15.768 2.698 15.84 2.556 15.984 2.556ZM33.552 65.32C33.552 67.237 31.968 68.799 30.024 68.799H5.976C4.032 68.799 2.448 67.237 2.448 65.32V5.68C2.448 3.763 4.032 2.201 5.976 2.201H8.784C9 2.201 9.216 2.414 9.216 2.627V2.698C9.288 3.834 10.224 4.757 11.376 4.757H24.624C25.776 4.757 26.712 3.834 26.784 2.698V2.556C26.784 2.343 27 2.13 27.216 2.13H30.024C31.968 2.13 33.552 3.692 33.552 5.609V65.32ZM0 9.798V12.141C0 12.212 0.072 12.283 0.144 12.283H0.288V9.656H0.144C0.072 9.656 0 9.727 0 9.798ZM0 14.768V19.596C0 19.667 0.072 19.738 0.144 19.738H0.288V14.626H0.144C0.072 14.626 0 14.697 0 14.768ZM0 21.3V26.128C0 26.199 0.072 26.27 0.144 26.27H0.288V21.158H0.144C0.072 21.158 0 21.229 0 21.3Z" fill="black"/>
<rect x="4" y="6" width="28" height="56" rx="1" fill="black"/>
</svg>
